HIERARCHY
ROOT Hips
{
	OFFSET 0.000000 0.000000 0.000000 
	CHANNELS 6 Xposition Yposition Zposition Yrotation Zrotation Xrotation 
	JOINT Lumbar
	{
		OFFSET 0.000000 0.000000 0.000000 
		CHANNELS 3 Zrotation Xrotation Yrotation
		JOINT Neck
		{
			OFFSET 0.000000 0.445665 0.000000 
			CHANNELS 3 Zrotation Xrotation Yrotation
			End Site
			{
				OFFSET 0.000000 0.227535 0.000000 
			}
		}
		JOINT RightShoulder
		{
			OFFSET 0.019635 0.377685 0.194865 
			CHANNELS 3 Zrotation Xrotation Yrotation
			JOINT RightElbow
			{
				OFFSET 0.000000 -0.243375 0.000000 
				CHANNELS 2 Zrotation Yrotation
				JOINT RightWrist
				{
					OFFSET 0.000000 -0.264825 0.000000 
					CHANNELS 2 Zrotation Xrotation
					End Site
					{
						OFFSET 0.006600 -0.176220 0.000990 
					}
				}
			}
		}
		JOINT LeftShoulder
		{
			OFFSET 0.019635 0.377685 -0.194865 
			CHANNELS 3 Zrotation Xrotation Yrotation
			JOINT LeftElbow
			{
				OFFSET 0.000000 -0.243375 0.000000 
				CHANNELS 2 Zrotation Yrotation
				JOINT LeftWrist
				{
					OFFSET 0.000000 -0.264825 0.000000 
					CHANNELS 2 Zrotation Xrotation
					End Site
					{
						OFFSET 0.006600 -0.176220 -0.000990 
					}
				}
			}
		}
	}
	JOINT RightHip
	{
		OFFSET 0.052140 -0.069960 0.075570 
		CHANNELS 3 Zrotation Xrotation Yrotation
		JOINT RightKnee
		{
			OFFSET 0.000000 -0.402270 0.000000 
			CHANNELS 1 Zrotation
			JOINT RightAnkle
			{
				OFFSET 0.000000 -0.404085 0.000000 
				CHANNELS 3 Zrotation Xrotation Yrotation
				End Site
				{
					OFFSET 0.204105 -0.089430 0.008415 
				}
			}
		}
	}
	JOINT LeftHip
	{
		OFFSET 0.052140 -0.069960 -0.075570 
		CHANNELS 3 Zrotation Xrotation Yrotation
		JOINT LeftKnee
		{
			OFFSET 0.000000 -0.402270 0.000000 
			CHANNELS 1 Zrotation
			JOINT LeftAnkle
			{
				OFFSET 0.000000 -0.404085 0.000000 
				CHANNELS 3 Zrotation Xrotation Yrotation
				End Site
				{
					OFFSET 0.204105 -0.089430 -0.008415 
				}
			}
		}
	}
}
MOTION
Frames: 22
Frame Time: 0.02
0.00107 0.00056 0.00025 29.55898 -12.80188 -3.60694 37.75108 0.16087 -12.38705 -15.0699 2.40034 -0.39121 -20.38044 -7.85748 1.3197 131.28986 80.68658 -3.0765 4.17104 -25.32036 5.47002 10.79646 31.2564 -61.35765 -1.02969 5.83885 25.95121 -3.69852 -0.52281 -19.87651 -6.9228 -4.09631 -2.93389 28.16444 7.09358 8.58112 -24.38567 -6.88049 1.99308 1.63662
-0.00085 0.0001 -0.00042 29.35007 -12.79507 -3.64331 37.55559 0.16773 -12.54683 -15.06832 2.41957 -0.40222 -20.76352 -7.3616 1.9626 131.50276 80.66899 -3.01814 3.83618 -25.2041 5.28909 11.42338 31.12307 -66.80845 -0.08948 4.62031 26.0905 -3.74923 -0.59856 -19.88632 -6.93891 -4.08067 -2.91369 28.25897 6.92385 7.99252 -24.43231 -6.87979 2.09298 1.69319
-0.00276 -0.00036 -0.00109 29.14136 -12.78831 -3.67949 37.36042 0.17459 -12.70608 -15.06668 2.43871 -0.41321 -21.14549 -6.86756 2.60362 131.71452 80.65194 -2.95979 3.50269 -25.08785 5.10923 12.04729 30.98996 -72.23567 0.84679 3.40708 26.22969 -3.79996 -0.67418 -19.89611 -6.95498 -4.06504 -2.89354 28.35349 6.75454 7.40595 -24.47891 -6.87911 2.19258 1.74958
-0.00467 -0.00082 -0.00176 28.93303 -12.78151 -3.71574 37.16549 0.18143 -12.86536 -15.06511 2.45787 -0.42418 -21.52742 -6.37324 3.24458 131.92681 80.63451 -2.90157 3.16895 -24.97192 4.92894 12.6721 30.857 -77.66837 1.78391 2.19259 26.36859 -3.85055 -0.7497 -19.90588 -6.97103 -4.04944 -2.87341 28.44776 6.58533 6.81921 -24.52542 -6.87842 2.29218 1.80598
-0.00658 -0.00128 -0.00243 28.72466 -12.77468 -3.75221 36.9703 0.18826 -13.02518 -15.06359 2.47716 -0.43517 -21.9104 -5.87703 3.88732 132.1401 80.6163 -2.84343 2.83359 -24.85605 4.7474 13.30035 30.72393 -83.12777 2.72546 0.97207 26.50751 -3.90106 -0.82538 -19.91566 -6.98713 -4.03386 -2.85324 28.54198 6.41574 6.2303 -24.57193 -6.87772 2.39208 1.86254
-0.0085 -0.00174 -0.0031 28.51524 -12.76809 -3.78777 36.77519 0.19519 -13.1832 -15.06164 2.496 -0.44616 -22.29022 -5.38761 4.52468 132.34842 80.60165 -2.78464 2.50401 -24.73898 4.57108 13.91512 30.59073 -88.48745 3.65063 -0.22587 26.64729 -3.95225 -0.90088 -19.92547 -7.00314 -4.01813 -2.8331 28.63716 6.24702 5.64868 -24.61873 -6.87706 2.49106 1.91858
-0.0104 -0.0022 -0.00377 28.30817 -12.76094 -3.82511 36.58021 0.20189 -13.3447 -15.06069 2.51566 -0.45713 -22.67602 -4.88491 5.17226 132.5674 80.58002 -2.72716 2.16344 -24.62459 4.38446 14.55621 30.4579 -94.03987 4.60744 -1.46745 26.78504 -4.002 -0.97655 -19.93519 -7.0193 -4.00271 -2.81294 28.73018 6.07675 5.05317 -24.66488 -6.87632 2.59176 1.97561
-0.01231 -0.00266 -0.00444 28.09893 -12.75445 -3.86086 36.38496 0.20884 -13.50293 -15.05858 2.53468 -0.46812 -23.05624 -4.39476 5.81022 132.77493 80.56454 -2.66857 1.83253 -24.50748 4.20732 15.17328 30.32477 -99.41821 5.53563 -2.66963 26.92492 -4.05311 -1.05224 -19.94505 -7.03532 -3.98699 -2.79279 28.82541 5.90787 4.47021 -24.71165 -6.87566 2.69091 2.03174
-0.01424 -0.00312 -0.00512 27.88691 -12.74819 -3.89445 36.18984 0.21598 -13.65744 -15.05599 2.55247 -0.47915 -23.43007 -3.9186 6.43747 132.9749 80.55779 -2.60822 1.51524 -24.38795 4.04188 15.76005 30.19105 -104.57028 6.4268 -3.82053 27.06651 -4.10581 -1.12727 -19.95485 -7.05119 -3.97097 -2.77269 28.92256 5.74078 3.90341 -24.75915 -6.87506 2.78805 2.08673
-0.0161 -0.00356 -0.00577 27.69049 -12.73889 -3.93981 35.99537 0.22164 -13.83421 -15.05896 2.57598 -0.48999 -23.84196 -3.35787 7.12953 133.23769 80.50448 -2.55678 1.12501 -24.28505 3.80943 16.51833 30.06004 -110.98373 7.52489 -5.25712 27.19561 -4.14914 -1.20407 -19.96432 -7.06799 -3.95685 -2.75241 29.00632 5.56367 3.24608 -24.80235 -6.87402 2.89644 2.14814
-0.0181 -0.00406 -0.00647 27.46145 -12.73709 -3.96078 35.79866 0.23067 -13.96347 -15.04843 2.5883 -0.5012 -24.17271 -2.97817 7.68277 133.35566 80.54698 -2.48732 0.88519 -24.14536 3.71811 16.91664 29.92376 -114.76213 8.19034 -6.09704 27.35268 -4.21236 -1.27844 -19.97491 -7.08279 -3.93863 -2.73244 29.1198 5.40756 2.77823 -24.85469 -6.87396 2.9813 2.19612
-0.02044 -0.00469 -0.00731 27.13951 -12.74748 -3.91068 35.60259 0.24717 -13.96559 -15.01466 2.56257 -0.51359 -24.28552 -3.07809 7.86775 133.16991 80.87633 -2.36039 1.09146 -23.9174 4.02053 16.30082 29.76977 -111.02165 7.6252 -5.233 27.57473 -4.32982 -1.33627 -19.98598 -7.09223 -3.91004 -2.71391 29.30394 5.311 2.84781 -24.9317 -6.87627 2.99931 2.20589
-0.02295 -0.00537 -0.00819 26.7856 -12.7671 -3.83705 35.40302 0.26737 -13.91942 -14.96452 2.52716 -0.52632 -24.31583 -3.36237 7.91043 132.81935 81.29828 -2.21607 1.44293 -23.65006 4.46377 15.32779 29.61148 -104.68852 6.63424 -3.78201 27.82745 -4.46729 -1.39403 -19.99934 -7.09963 -3.87733 -2.69569 29.52017 5.2354 3.10434 -25.01792 -6.87963 2.99412 2.20241
-0.02542 -0.00604 -0.00904 26.44827 -12.78776 -3.77662 35.2006 0.28708 -13.89319 -14.91319 2.50073 -0.53878 -24.38105 -3.57425 8.01066 132.48556 81.66122 -2.08595 1.70575 -23.39257 4.83793 14.53627 29.45677 -99.72998 5.86577 -2.64335 28.07333 -4.59591 -1.45763 -20.01242 -7.10792 -3.84572 -2.67683 29.72855 5.14866 3.264 -25.10025 -6.88272 3.00107 2.20586
-0.02772 -0.00669 -0.00994 26.10148 -12.7857 -3.70475 35.01686 0.30188 -13.87524 -14.89932 2.45416 -0.55172 -24.45771 -3.74095 8.14292 132.40507 82.09247 -1.93243 2.06314 -23.16929 5.23253 13.66572 29.29355 -93.9375 4.97182 -1.31172 28.28768 -4.72371 -1.49458 -20.01936 -7.11646 -3.81668 -2.65966 29.90762 5.06784 3.47466 -25.18151 -6.88494 3.00128 2.20549
-0.0304 -0.00738 -0.01074 25.76775 -12.83397 -3.65216 34.79343 0.32766 -13.82873 -14.80221 2.44823 -0.56373 -24.4901 -4.04233 8.1719 131.7476 82.40754 -1.81949 2.25973 -22.86501 5.61959 12.87178 29.14908 -89.26718 4.24119 -0.24206 28.57703 -4.85774 -1.58968 -20.04329 -7.12386 -3.78217 -2.63955 30.15653 4.98083 3.62299 -25.26699 -6.88925 3.00994 2.20988
-0.03411 -0.00819 -0.0113 25.47102 -13.01113 -3.64972 34.46171 0.38376 -13.71429 -14.49162 2.54779 -0.57309 -24.42726 -4.69611 7.97218 129.62099 82.34185 -1.85903 1.96145 -22.35004 5.93698 12.40525 29.03883 -88.34272 4.04215 -0.04916 29.04614 -5.00618 -1.82196 -20.08233 -7.12995 -3.72609 -2.60705 30.57872 4.86168 3.55725 -25.36318 -6.89881 3.04829 2.23106
-0.0382 -0.00904 -0.01174 25.19051 -13.23945 -3.6691 34.09056 0.45052 -13.57303 -14.09622 2.68986 -0.58148 -24.32077 -5.47387 7.66742 126.90058 82.16204 -1.93439 1.49944 -21.75413 6.24471 12.02188 28.95024 -88.63536 4.02634 -0.13855 29.59181 -5.15993 -2.11651 -20.1441 -7.13489 -3.66605 -2.5724 31.07118 4.73754 3.42215 -25.46285 -6.91046 3.09568 2.25735
-0.04212 -0.00987 -0.01219 24.90624 -13.4503 -3.68439 33.73658 0.51192 -13.44456 -13.73069 2.81898 -0.59032 -24.23068 -6.17844 7.39908 124.40131 82.06011 -1.9682 1.12199 -21.19329 6.56612 11.58326 28.86498 -88.36349 3.94271 -0.09249 30.11742 -5.30969 -2.39871 -20.21607 -7.13928 -3.61268 -2.54147 31.54047 4.62198 3.31552 -25.56029 -6.92139 3.13866 2.28115
-0.04605 -0.01069 -0.01284 24.60282 -13.63969 -3.6745 33.3837 0.57602 -13.31159 -13.39837 2.92259 -0.59918 -24.15503 -6.962 7.18173 122.11532 81.85546 -2.10344 0.7055 -20.63897 6.85269 11.21026 28.72736 -88.04989 3.78049 -0.05613 30.58831 -5.46626 -2.61618 -20.20188 -7.14747 -3.53851 -2.49889 31.97827 4.47992 3.2259 -25.66156 -6.93157 3.18266 2.30551
-0.05002 -0.01155 -0.01305 24.34706 -13.88251 -3.72227 33.02164 0.63649 -13.18263 -12.98047 3.08742 -0.60771 -24.03648 -7.60627 6.82486 119.22949 81.83159 -2.04197 0.33114 -20.05153 7.20834 10.71947 28.69972 -88.1451 3.82914 -0.0743 31.18292 -5.61033 -2.97998 -20.37196 -7.14834 -3.5069 -2.48018 32.49242 4.39233 3.085 -25.7546 -6.94357 3.22626 2.3297
-0.05424 -0.01252 -0.01205 24.18855 -14.28881 -3.92607 32.62366 0.68855 -13.06694 -12.31683 3.42955 -0.61588 -23.83982 -7.85088 6.18043 114.97439 82.36819 -1.38313 0.09912 -19.40038 7.75013 9.93446 29.00877 -89.09195 4.43334 -0.17655 32.16856 -5.71261 -3.76125 -21.0485 -7.12169 -3.59228 -2.52651 33.24772 4.44984 2.79158 -25.83268 -6.96189 3.2731 2.3557
